<?xml version="1.0" encoding="utf-8"?>
<!-- Generator: Adobe Illustrator 21.0.0, SVG Export Plug-In . SVG Version: 6.00 Build 0)  -->
<svg version="1.1" id="Capa_1" xmlns="http://www.w3.org/2000/svg" xmlns:xlink="http://www.w3.org/1999/xlink" x="0px" y="0px"
	 viewBox="0 0 16 16" style="enable-background:new 0 0 16 16;" xml:space="preserve">
<style type="text/css">
	.st0{fill:#BFBFBF;}
</style>
<g>
	<path class="st0" d="M14.5,4.2c-0.7-1.1-1.6-2.1-2.7-2.7c-1.1-0.7-2.4-1-3.8-1s-2.6,0.3-3.8,1c-1.1,0.7-2,1.6-2.7,2.7
		c-0.7,1.2-1,2.4-1,3.8s0.3,2.6,1,3.8c0.7,1.1,1.6,2.1,2.7,2.7c1.1,0.7,2.4,1,3.8,1s2.6-0.3,3.8-1c1.1-0.7,2.1-1.6,2.7-2.7
		c0.7-1.1,1-2.4,1-3.8S15.2,5.4,14.5,4.2z M9.2,12.7c0,0.1,0,0.2-0.1,0.2C9,13,9,13,8.9,13H7.1c-0.1,0-0.2,0-0.2-0.1
		c-0.1-0.1-0.1-0.1-0.1-0.2v-1.9c0-0.1,0-0.2,0.1-0.2c0-0.1,0.1-0.1,0.2-0.1H9c0.1,0,0.2,0,0.2,0.1c0.1,0.1,0.1,0.1,0.1,0.2v1.9H9.2
		z M11.6,6.9c-0.1,0.3-0.1,0.5-0.2,0.6C11.3,7.7,11.2,7.8,11,8s-0.3,0.3-0.4,0.3c-0.2,0.1-0.4,0.2-0.6,0.3C9.8,8.7,9.6,8.9,9.5,9.1
		C9.3,9.3,9.2,9.4,9.2,9.6c0,0.1,0,0.2-0.1,0.2c0,0-0.1,0.1-0.2,0.1H7.1c-0.1,0-0.2,0-0.2-0.1C6.8,9.7,6.7,9.7,6.7,9.6V9.2
		c0-0.4,0.2-0.8,0.5-1.2c0.3-0.4,0.7-0.7,1.1-0.8C8.6,7.1,8.8,6.9,9,6.8c0.1-0.1,0.2-0.3,0.2-0.6c0-0.2-0.1-0.4-0.4-0.6
		C8.6,5.4,8.4,5.3,8,5.3c-0.3,0-0.6,0.1-0.8,0.2C7,5.7,6.7,6,6.4,6.4C6.3,6.5,6.2,6.5,6.1,6.5s-0.1,0-0.2,0l-1.2-1
		C4.5,5.4,4.5,5.2,4.6,5.1C5.4,3.7,6.6,3,8.2,3c0.6,0,1.1,0.1,1.7,0.4c0.5,0.3,1,0.6,1.4,1.1s0.5,1,0.5,1.6
		C11.7,6.4,11.7,6.7,11.6,6.9z"/>
</g>
</svg>
